ply
format ascii 1.0
comment VCGLIB generated
element vertex 8
property float x
property float y
property float z
property float nx
property float ny
property float nz
element face 12
property list uchar int vertex_indices
end_header
0 0.063 0.093 -0.666667 0.333333 0.666667 
0.165 0.063 0.093 0.666667 0.666667 0.333333 
0.165 0 0.093 0.333333 -0.666667 0.666667 
0 0 0.093 -0.57735 -0.57735 0.57735 
0 0.063 0 -0.333333 0.666667 -0.666667 
0.165 0.063 0 0.57735 0.57735 -0.57735 
0.165 0 0 0.666667 -0.333333 -0.666667 
0 0 0 -0.666667 -0.666667 -0.333333 
3 0 1 4 
3 4 1 5 
3 1 6 5 
3 1 2 6 
3 0 2 1 
3 0 3 2 
3 0 7 3 
3 0 4 7 
3 4 5 6 
3 4 6 7 
3 2 7 6 
3 2 3 7 
